<svg version="1" xmlns="http://www.w3.org/2000/svg" width="933.333" height="933.333" viewBox="0 0 700.000000 700.000000"><path d="M209.2 109.8C186 162 167 205.3 167 205.9c0 .6 22.4 39.7 49.8 86.9 27.5 47.1 50.4 86.7 51.1 87.9 1.1 2.1-1.5 5.7-33 46.5-18.8 24.4-34.6 44.8-35 45.3-.7 1 152.1 208.6 154 209.3 1 .3 154.4-206.6 154.4-208.3 0-.6-15.4-21.1-34.3-45.5s-34.3-44.9-34.3-45.4c0-.6 23-40.6 51.1-88.8l51-87.8-41.5-93.2c-22.8-51.3-41.9-94.4-42.5-95.8l-1-2.5-.9 2.5c-.5 1.4-18.2 82.8-39.4 181-21.1 98.2-38.7 179.5-39 180.7l-.5 2.3h-23c-12.7 0-23-.2-23-.5 0-1.5-78.1-362.3-78.8-363.9-.6-1.3-11.7 22.7-43 93.2zm237 406.3c-.4.3-13.7 4.5-29.7 9.4-15.9 4.8-29.7 9.1-30.4 9.3-.8.3 10.4-12.4 24.9-28.2l26.5-28.8 4.7 18.9c2.6 10.3 4.4 19.1 4 19.4zm-148.8-9.4c14 15.3 25.3 27.9 25.2 28-.2.2-20.9-6.1-50.2-15.2l-11.1-3.5 4.6-18.5c2.5-10.2 4.9-18.5 5.3-18.5.4 0 12.1 12.5 26.2 27.7z"/></svg>